<svg width="1295" height="438" viewBox="0 0 1295 438" fill="none" xmlns="http://www.w3.org/2000/svg">
<g clip-path="url(#clip0_288_2)">
<path d="M1062.7 385.285V399.724C1062.7 401.641 1062.52 403.179 1062.14 404.322C1061.76 405.474 1061.07 406.505 1060.06 407.431C1059.05 408.357 1057.75 409.251 1056.18 410.105C1051.62 412.569 1047.23 414.365 1043.02 415.5C1038.81 416.627 1034.21 417.199 1029.25 417.199C1023.46 417.199 1018.18 416.305 1013.42 414.526C1008.65 412.746 1004.6 410.161 1001.24 406.771C997.884 403.38 995.308 399.273 993.504 394.442C991.709 389.61 990.808 384.214 990.808 378.255C990.808 372.296 991.677 367.037 993.424 362.173C995.171 357.309 997.739 353.186 1001.14 349.788C1004.53 346.398 1008.65 343.805 1013.52 342.009C1018.38 340.213 1023.89 339.311 1030.06 339.311C1035.13 339.311 1039.62 339.987 1043.53 341.34C1047.43 342.693 1050.6 344.4 1053.04 346.454C1055.47 348.508 1057.3 350.682 1058.53 352.977C1059.77 355.272 1060.39 357.309 1060.39 359.089C1060.39 361.006 1059.68 362.64 1058.25 363.993C1056.83 365.346 1055.13 366.023 1053.14 366.023C1052.05 366.023 1050.99 365.765 1049.98 365.25C1048.96 364.734 1048.12 364.017 1047.43 363.091C1045.55 360.144 1043.95 357.921 1042.65 356.415C1041.35 354.91 1039.59 353.637 1037.39 352.615C1035.18 351.584 1032.35 351.076 1028.93 351.076C1025.51 351.076 1022.25 351.688 1019.47 352.904C1016.7 354.12 1014.33 355.884 1012.36 358.195C1010.39 360.506 1008.88 363.341 1007.83 366.699C1006.79 370.057 1006.26 373.77 1006.26 377.844C1006.26 386.678 1008.29 393.483 1012.35 398.243C1016.41 403.002 1022.07 405.385 1029.34 405.385C1032.86 405.385 1036.18 404.926 1039.28 404C1042.38 403.074 1045.52 401.754 1048.7 400.046V387.822H1036.89C1034.05 387.822 1031.9 387.395 1030.44 386.534C1028.98 385.68 1028.26 384.222 1028.26 382.169C1028.26 380.494 1028.86 379.101 1030.08 378.005C1031.3 376.91 1032.95 376.363 1035.04 376.363H1052.36C1054.48 376.363 1056.28 376.548 1057.75 376.926C1059.23 377.305 1060.42 378.142 1061.33 379.439C1062.24 380.743 1062.69 382.692 1062.69 385.293L1062.7 385.285Z" fill="#A6A8AB"/>
<path d="M1088.93 396.946V408.663C1088.93 411.506 1088.26 413.64 1086.93 415.057C1085.59 416.474 1083.89 417.191 1081.84 417.191C1079.79 417.191 1078.15 416.474 1076.86 415.033C1075.55 413.591 1074.9 411.474 1074.9 408.663V369.622C1074.9 363.317 1077.18 360.168 1081.73 360.168C1084.06 360.168 1085.74 360.901 1086.77 362.375C1087.8 363.848 1088.37 366.023 1088.47 368.898C1090.15 366.023 1091.87 363.848 1093.64 362.375C1095.4 360.901 1097.76 360.168 1100.71 360.168C1103.65 360.168 1106.51 360.901 1109.29 362.375C1112.07 363.848 1113.45 365.797 1113.45 368.229C1113.45 369.945 1112.86 371.354 1111.68 372.465C1110.5 373.576 1109.23 374.132 1107.85 374.132C1107.33 374.132 1106.09 373.818 1104.12 373.182C1102.15 372.546 1100.41 372.232 1098.91 372.232C1096.85 372.232 1095.17 372.771 1093.87 373.85C1092.56 374.929 1091.56 376.532 1090.83 378.65C1090.11 380.776 1089.62 383.304 1089.34 386.228C1089.07 389.159 1088.93 392.726 1088.93 396.938V396.946Z" fill="#A6A8AB"/>
<path d="M1168.35 388.676C1168.35 392.855 1167.69 396.704 1166.39 400.232C1165.09 403.759 1163.2 406.795 1160.74 409.323C1158.28 411.86 1155.33 413.801 1151.9 415.154C1148.47 416.507 1144.62 417.183 1140.34 417.183C1136.06 417.183 1132.27 416.499 1128.88 415.13C1125.49 413.761 1122.55 411.796 1120.06 409.251C1117.57 406.698 1115.69 403.686 1114.41 400.207C1113.13 396.729 1112.49 392.887 1112.49 388.676C1112.49 384.464 1113.14 380.542 1114.44 377.015C1115.75 373.488 1117.61 370.476 1120.05 367.972C1122.48 365.475 1125.42 363.542 1128.88 362.19C1132.35 360.837 1136.16 360.16 1140.35 360.16C1144.53 360.16 1148.45 360.845 1151.91 362.214C1155.37 363.583 1158.33 365.531 1160.8 368.068C1163.26 370.605 1165.13 373.617 1166.42 377.112C1167.71 380.607 1168.35 384.456 1168.35 388.668V388.676ZM1154.27 388.676C1154.27 382.958 1153.01 378.505 1150.49 375.316C1147.97 372.127 1144.59 370.54 1140.34 370.54C1137.59 370.54 1135.18 371.249 1133.09 372.674C1131 374.1 1129.39 376.194 1128.26 378.964C1127.14 381.742 1126.57 384.971 1126.57 388.676C1126.57 392.38 1127.12 395.545 1128.23 398.283C1129.34 401.021 1130.94 403.123 1133.01 404.572C1135.08 406.03 1137.53 406.755 1140.34 406.755C1144.59 406.755 1147.97 405.152 1150.49 401.955C1153.01 398.75 1154.27 394.329 1154.27 388.676Z" fill="#A6A8AB"/>
<path d="M1214.57 409.283V407.487C1212.89 409.613 1211.12 411.393 1209.28 412.826C1207.43 414.268 1205.41 415.339 1203.22 416.04C1201.03 416.74 1198.53 417.095 1195.72 417.095C1192.33 417.095 1189.28 416.394 1186.6 414.985C1183.91 413.583 1181.82 411.643 1180.35 409.178C1178.6 406.199 1177.72 401.915 1177.72 396.334V368.543C1177.72 365.733 1178.36 363.639 1179.62 362.246C1180.89 360.861 1182.57 360.168 1184.66 360.168C1186.76 360.168 1188.5 360.869 1189.8 362.278C1191.1 363.679 1191.76 365.773 1191.76 368.543V390.995C1191.76 394.248 1192.03 396.978 1192.58 399.193C1193.12 401.399 1194.11 403.131 1195.53 404.379C1196.96 405.627 1198.88 406.255 1201.31 406.255C1203.74 406.255 1205.9 405.555 1207.99 404.145C1210.09 402.744 1211.61 400.908 1212.57 398.645C1213.35 396.656 1213.75 392.308 1213.75 385.591V368.535C1213.75 365.757 1214.4 363.671 1215.71 362.27C1217.01 360.869 1218.7 360.16 1220.79 360.16C1222.89 360.16 1224.56 360.853 1225.83 362.238C1227.1 363.623 1227.73 365.725 1227.73 368.535V409.17C1227.73 411.844 1227.12 413.841 1225.9 415.178C1224.69 416.515 1223.12 417.183 1221.2 417.183C1219.29 417.183 1217.7 416.491 1216.45 415.105C1215.2 413.72 1214.57 411.78 1214.57 409.275V409.283Z" fill="#A6A8AB"/>
<path d="M1253.39 368.028V369.727C1256.03 366.474 1258.77 364.082 1261.61 362.56C1264.45 361.038 1267.67 360.273 1271.27 360.273C1275.58 360.273 1279.56 361.384 1283.19 363.615C1286.82 365.846 1289.69 369.091 1291.8 373.375C1293.9 377.659 1294.96 382.725 1294.96 388.579C1294.96 392.895 1294.35 396.857 1293.13 400.473C1291.92 404.089 1290.24 407.117 1288.13 409.565C1286 412.013 1283.49 413.897 1280.6 415.218C1277.7 416.539 1274.59 417.199 1271.27 417.199C1267.26 417.199 1263.89 416.394 1261.17 414.783C1258.45 413.173 1255.85 410.813 1253.39 407.697V428.763C1253.39 434.924 1251.14 438.008 1246.66 438.008C1244.02 438.008 1242.27 437.211 1241.42 435.616C1240.56 434.022 1240.13 431.703 1240.13 428.659V368.141C1240.13 365.467 1240.71 363.478 1241.88 362.157C1243.04 360.837 1244.63 360.176 1246.66 360.176C1248.69 360.176 1250.27 360.853 1251.51 362.206C1252.76 363.558 1253.39 365.499 1253.39 368.036V368.028ZM1280.88 388.426C1280.88 384.73 1280.32 381.549 1279.18 378.891C1278.05 376.234 1276.48 374.196 1274.48 372.779C1272.48 371.362 1270.25 370.645 1267.82 370.645C1263.95 370.645 1260.69 372.167 1258.03 375.219C1255.38 378.271 1254.05 382.757 1254.05 388.676C1254.05 394.256 1255.37 398.597 1258.01 401.697C1260.65 404.798 1263.92 406.344 1267.82 406.344C1270.15 406.344 1272.31 405.667 1274.29 404.314C1276.28 402.962 1277.88 400.932 1279.08 398.226C1280.28 395.521 1280.87 392.251 1280.87 388.418L1280.88 388.426Z" fill="#A6A8AB"/>
<path d="M66.5667 118.741V261.914C66.5667 272.399 63.6445 281.177 57.792 288.255C51.9637 295.334 43.841 298.877 33.4402 298.877C23.0394 298.877 15.0455 295.334 9.00791 288.199C3.00248 281.072 0.0078125 272.319 0.0078125 261.914V34.4183C0.0078125 24.642 3.05078 16.4602 9.12866 9.87292C15.2065 3.30171 23.0233 0 32.5869 0C43.5432 0 52.817 4.92035 60.4002 14.7611L188.68 176.19V36.955C188.68 26.5425 191.642 17.7809 197.599 10.6621C203.557 3.56746 211.727 0 222.161 0C232.594 0 240.434 3.53524 246.343 10.6218C252.276 17.7004 255.223 26.4862 255.223 36.963V260.642C255.223 273.027 252.325 282.449 246.52 288.892C239.839 295.543 232.433 298.877 224.278 298.877C212.806 298.877 203.983 294.649 197.801 286.234L66.5667 118.741Z" fill="#EF5174"/>
<path d="M548.329 37.3817V167.485C548.329 186.329 546.776 202.346 543.693 215.61C540.601 228.857 534.346 241.508 524.839 253.62C512.756 268.928 497.654 280.798 479.525 289.27C461.396 297.726 442.437 301.953 422.61 301.953C405.769 301.953 389.668 299.111 374.285 293.409C358.917 287.7 345.401 279.647 333.688 269.242C321.966 258.83 312.773 246.332 306.075 231.748C299.394 217.172 296.045 201.404 296.045 184.501V37.3817C296.045 26.9773 299.032 18.2077 305.021 11.105C311.002 3.97811 319.197 0.418701 329.59 0.418701C339.983 0.418701 347.936 3.97811 353.797 11.105C359.682 18.2157 362.628 26.9773 362.628 37.3817V174.934C362.628 193.48 367.273 208.386 376.531 219.636C381.828 226.014 388.662 230.942 397.01 234.462C405.358 237.965 413.755 239.72 422.175 239.72C431.175 239.72 439.926 237.723 448.467 233.769C456.96 229.807 463.891 224.242 469.116 217.091C477.536 206.043 481.763 189.51 481.763 167.493V37.3817C481.763 26.9773 484.717 18.2077 490.65 11.105C496.607 3.97811 504.681 0.418701 514.865 0.418701C525.048 0.418701 533.26 3.97811 539.273 11.105C545.311 18.2157 548.321 26.9773 548.321 37.3817H548.329Z" fill="#EF5174"/>
<path d="M655.631 176.625V261.914C655.631 272.399 652.717 281.177 646.856 288.255C641.028 295.334 632.889 298.877 622.496 298.877C612.103 298.877 604.093 295.334 598.088 288.199C592.05 281.072 589.056 272.319 589.056 261.914V44.8066C589.056 32.2118 592.606 22.3872 599.722 15.3489C606.839 8.29453 616.764 4.77539 629.516 4.77539H696.509C726.078 4.77539 750.011 12.321 768.285 27.3881C777.76 35.3363 785.134 44.9596 790.358 56.2901C795.599 67.6206 798.232 79.4424 798.232 91.7473C798.232 117.96 790.688 138.414 775.61 153.143C765.701 162.637 750.47 169.74 729.958 174.491L786.543 236.612C795.116 245.897 800.164 253.716 801.733 260.086C802.289 263.629 802.579 266.11 802.579 267.535C802.579 275.532 799.874 282.755 794.416 289.198C788.966 295.648 782.558 298.861 775.192 298.861C760.106 298.861 748.972 294.078 741.751 284.535L655.655 176.617L655.631 176.625ZM655.631 130.112H696.928C707.16 130.112 715.757 127.051 722.664 120.963C729.563 114.883 733.017 106.879 733.017 96.9575C733.017 87.0363 729.25 79.0317 721.715 72.4846C714.164 65.9376 705.445 62.652 695.543 62.652H655.631V130.112Z" fill="#EF5174"/>
<path d="M905.589 63.9405V119.168H967.68C977.026 119.168 984.875 121.825 991.251 127.124C997.626 132.431 1000.81 139.791 1000.81 149.221C1000.81 158.651 997.594 165.375 991.138 170.723C984.698 176.078 976.881 178.735 967.68 178.735H905.589V234.921H974.265C983.885 234.921 991.782 237.554 997.989 242.788C1004.18 248.031 1007.26 255.391 1007.26 264.878C1007.26 274.364 1004.12 281.145 997.836 286.5C991.524 291.831 983.683 294.504 974.257 294.504H879.434C866.634 294.504 856.684 290.969 849.616 283.891C842.524 276.812 838.981 266.859 838.981 254.038V44.8067C838.981 32.2118 842.556 22.3148 849.664 15.1396C856.788 7.95635 866.714 4.34863 879.442 4.34863H974.265C983.885 4.34863 991.782 6.99805 997.989 12.313C1004.18 17.6279 1007.26 24.9964 1007.26 34.4103C1007.26 43.8242 1004.12 50.5726 997.836 55.9036C991.524 61.2508 983.683 63.9324 974.257 63.9324H905.581L905.589 63.9405Z" fill="#EF5174"/>
<path d="M1106.34 118.741V261.914C1106.34 272.399 1103.41 281.177 1097.58 288.255C1091.72 295.334 1083.63 298.877 1073.19 298.877C1062.76 298.877 1054.8 295.334 1048.79 288.199C1042.77 281.072 1039.76 272.319 1039.76 261.914V34.4183C1039.76 24.642 1042.8 16.4602 1048.91 9.87292C1054.98 3.30171 1062.79 0 1072.36 0C1083.32 0 1092.58 4.92035 1100.17 14.7611L1228.44 176.19V36.955C1228.44 26.5425 1231.4 17.7809 1237.36 10.6621C1243.33 3.56746 1251.52 0 1261.92 0C1272.32 0 1280.2 3.53524 1286.13 10.6218C1292.04 17.7004 1295.01 26.4862 1295.01 36.963V260.642C1295.01 273.027 1292.12 282.449 1286.29 288.892C1279.62 295.543 1272.21 298.877 1264.06 298.877C1252.57 298.877 1243.75 294.649 1237.56 286.234L1106.34 118.749V118.741Z" fill="#EF5174"/>
</g>
<defs>
<clipPath id="clip0_288_2">
<rect width="1295" height="438" fill="white"/>
</clipPath>
</defs>
</svg>
