<svg width="128" height="128" viewBox="0 0 128 128" fill="none" xmlns="http://www.w3.org/2000/svg">
<mask id="mask0_538_41" style="mask-type:alpha" maskUnits="userSpaceOnUse" x="0" y="0" width="128" height="128">
<rect width="128" height="128" fill="#D9D9D9"/>
</mask>
<g mask="url(#mask0_538_41)">
<path d="M42.666 90.6667H85.3327C86.8438 90.6667 88.1105 90.1556 89.1327 89.1334C90.1549 88.1112 90.666 86.8445 90.666 85.3334C90.666 83.8223 90.1549 82.5556 89.1327 81.5334C88.1105 80.5112 86.8438 80.0001 85.3327 80.0001H42.666C41.1549 80.0001 39.8882 80.5112 38.866 81.5334C37.8438 82.5556 37.3327 83.8223 37.3327 85.3334C37.3327 86.8445 37.8438 88.1112 38.866 89.1334C39.8882 90.1556 41.1549 90.6667 42.666 90.6667ZM58.666 54.1334L53.866 49.4667C52.8882 48.489 51.666 48.0001 50.1993 48.0001C48.7327 48.0001 47.466 48.5334 46.3993 49.6001C45.4216 50.5779 44.9327 51.8223 44.9327 53.3334C44.9327 54.8445 45.4216 56.089 46.3993 57.0667L60.266 70.9334C61.3327 72.0001 62.5771 72.5334 63.9993 72.5334C65.4216 72.5334 66.666 72.0001 67.7327 70.9334L81.5993 57.0667C82.5771 56.089 83.0882 54.8667 83.1327 53.4001C83.1771 51.9334 82.666 50.6667 81.5993 49.6001C80.6216 48.6223 79.3993 48.1112 77.9327 48.0667C76.466 48.0223 75.1993 48.489 74.1327 49.4667L69.3327 54.1334V37.3334C69.3327 35.8223 68.8216 34.5556 67.7993 33.5334C66.7771 32.5112 65.5105 32.0001 63.9993 32.0001C62.4882 32.0001 61.2216 32.5112 60.1993 33.5334C59.1771 34.5556 58.666 35.8223 58.666 37.3334V54.1334ZM63.9993 117.333C56.6216 117.333 49.6882 115.933 43.1993 113.133C36.7105 110.333 31.066 106.533 26.266 101.733C21.466 96.9334 17.666 91.289 14.866 84.8001C12.066 78.3112 10.666 71.3779 10.666 64.0001C10.666 56.6223 12.066 49.689 14.866 43.2001C17.666 36.7112 21.466 31.0667 26.266 26.2667C31.066 21.4667 36.7105 17.6667 43.1993 14.8667C49.6882 12.0667 56.6216 10.6667 63.9993 10.6667C71.3771 10.6667 78.3105 12.0667 84.7993 14.8667C91.2882 17.6667 96.9327 21.4667 101.733 26.2667C106.533 31.0667 110.333 36.7112 113.133 43.2001C115.933 49.689 117.333 56.6223 117.333 64.0001C117.333 71.3779 115.933 78.3112 113.133 84.8001C110.333 91.289 106.533 96.9334 101.733 101.733C96.9327 106.533 91.2882 110.333 84.7993 113.133C78.3105 115.933 71.3771 117.333 63.9993 117.333ZM63.9993 106.667C75.9105 106.667 85.9993 102.533 94.266 94.2667C102.533 86.0001 106.666 75.9112 106.666 64.0001C106.666 52.089 102.533 42.0001 94.266 33.7334C85.9993 25.4667 75.9105 21.3334 63.9993 21.3334C52.0882 21.3334 41.9993 25.4667 33.7327 33.7334C25.466 42.0001 21.3327 52.089 21.3327 64.0001C21.3327 75.9112 25.466 86.0001 33.7327 94.2667C41.9993 102.533 52.0882 106.667 63.9993 106.667Z" fill="white"/>
</g>
</svg>
