<svg width="170" height="291" viewBox="0 0 170 291" fill="none" xmlns="http://www.w3.org/2000/svg">
<path d="M67.5887 59.9404V115.168H129.68C139.026 115.168 146.875 117.825 153.251 123.124C159.626 128.431 162.814 135.791 162.814 145.221C162.814 154.651 159.594 161.375 153.138 166.723C146.698 172.078 138.881 174.735 129.68 174.735H67.5887V230.921H136.265C145.885 230.921 153.782 233.554 159.989 238.788C166.179 244.031 169.262 251.391 169.262 260.878C169.262 270.364 166.123 277.145 159.836 282.5C153.524 287.831 145.683 290.504 136.257 290.504H41.4336C28.6338 290.504 18.6839 286.969 11.6158 279.891C4.52359 272.812 0.981445 262.859 0.981445 250.038V40.8066C0.981445 28.2118 4.55574 18.3147 11.664 11.1395C18.7885 3.95632 28.7143 0.348595 41.4416 0.348595H136.265C145.885 0.348595 153.782 2.99801 159.989 8.31296C166.179 13.6279 169.262 20.9964 169.262 30.4103C169.262 39.8242 166.123 46.5725 159.836 51.9036C153.524 57.2507 145.683 59.9324 136.257 59.9324H67.5807L67.5887 59.9404Z" fill="#EF5174"/>
</svg>
