<svg width="305" height="99" viewBox="0 0 305 99" fill="none" xmlns="http://www.w3.org/2000/svg">
<path d="M72.7037 46.2854V60.7243C72.7037 62.6409 72.5186 64.179 72.1402 65.3225C71.7619 66.4741 71.0696 67.5049 70.0553 68.431C69.049 69.3571 67.7529 70.2509 66.175 71.1046C61.6186 73.5688 57.2313 75.3646 53.0211 76.5C48.8108 77.6275 44.2142 78.1992 39.2472 78.1992C33.4591 78.1992 28.1782 77.3053 23.4205 75.5256C18.6548 73.7459 14.5975 71.1609 11.2406 67.7706C7.88369 64.3803 5.30765 60.2733 3.50441 55.4416C1.70922 50.6098 0.807617 45.2143 0.807617 39.2551C0.807617 33.2959 1.67704 28.0374 3.42392 23.1734C5.17081 18.3094 7.73878 14.1863 11.136 10.7879C14.5251 7.39765 18.6548 4.80462 23.5171 3.00881C28.3794 1.213 33.8939 0.311066 40.0603 0.311066C45.1319 0.311066 49.6158 0.987505 53.5282 2.3404C57.4326 3.6933 60.6043 5.40053 63.0354 7.45403C65.4666 9.50753 67.3021 11.6818 68.5338 13.9769C69.7654 16.272 70.3852 18.3094 70.3852 20.0891C70.3852 22.0057 69.6768 23.6405 68.2519 24.9934C66.827 26.3463 65.1285 27.0227 63.1401 27.0227C62.0453 27.0227 60.9907 26.765 59.9764 26.2496C58.9621 25.7342 58.1168 25.0175 57.4325 24.0914C55.5488 21.144 53.9548 18.9214 52.6507 17.4155C51.3466 15.9096 49.5917 14.6373 47.3859 13.6145C45.1802 12.5838 42.3546 12.0764 38.9332 12.0764C35.5119 12.0764 32.2516 12.6885 29.4743 13.9045C26.697 15.1204 24.3303 16.884 22.358 19.1952C20.3857 21.5064 18.8802 24.3411 17.8337 27.6991C16.7871 31.0572 16.2639 34.7696 16.2639 38.8444C16.2639 47.6785 18.2926 54.4833 22.3499 59.2425C26.4072 64.0018 32.0745 66.3855 39.3358 66.3855C42.8617 66.3855 46.1784 65.9265 49.2777 65.0004C52.377 64.0743 55.5246 62.7536 58.7044 61.0464V48.822H46.8868C44.0451 48.822 41.8957 48.3952 40.4386 47.5336C38.9815 46.6799 38.2571 45.2224 38.2571 43.1689C38.2571 41.4939 38.8607 40.1007 40.0844 39.0055C41.2999 37.9103 42.9503 37.3627 45.0433 37.3627H62.3592C64.4845 37.3627 66.2796 37.5479 67.7528 37.9264C69.226 38.3049 70.4175 39.1424 71.3272 40.4389C72.2368 41.7435 72.6876 43.6923 72.6876 46.2934L72.7037 46.2854Z" fill="#A6A8AB"/>
<path d="M98.9309 57.946V69.6631C98.9309 72.5058 98.2627 74.6398 96.9263 76.0571C95.59 77.4744 93.8915 78.1912 91.8387 78.1912C89.7859 78.1912 88.1517 77.4744 86.8557 76.033C85.5515 74.5915 84.8994 72.4736 84.8994 69.6631V30.6224C84.8994 24.3169 87.1776 21.1682 91.734 21.1682C94.0605 21.1682 95.743 21.901 96.7734 23.3747C97.8039 24.8484 98.3674 27.0227 98.472 29.8976C100.154 27.0227 101.869 24.8484 103.64 23.3747C105.403 21.901 107.762 21.1682 110.708 21.1682C113.655 21.1682 116.512 21.901 119.29 23.3747C122.067 24.8484 123.452 26.7972 123.452 29.2292C123.452 30.9445 122.864 32.3538 121.681 33.4651C120.497 34.5764 119.225 35.132 117.849 35.132C117.334 35.132 116.094 34.818 114.122 34.1818C112.149 33.5456 110.41 33.2315 108.905 33.2315C106.852 33.2315 105.17 33.7711 103.866 34.8502C102.562 35.9293 101.555 37.5318 100.831 39.6497C100.114 41.7757 99.6151 44.3043 99.3414 47.2275C99.0677 50.1588 98.9309 53.7263 98.9309 57.938V57.946Z" fill="#A6A8AB"/>
<path d="M178.347 49.6757C178.347 53.8551 177.695 57.7045 176.39 61.2316C175.086 64.7588 173.203 67.7948 170.739 70.3234C168.276 72.8601 165.329 74.8009 161.9 76.1538C158.471 77.5067 154.623 78.1831 150.34 78.1831C146.057 78.1831 142.274 77.4986 138.877 76.1296C135.487 74.7606 132.549 72.7957 130.062 70.251C127.574 67.6982 125.69 64.6864 124.41 61.2075C123.13 57.7286 122.486 53.8873 122.486 49.6757C122.486 45.464 123.138 41.5422 124.443 38.015C125.747 34.4878 127.614 31.476 130.045 28.9715C132.477 26.4751 135.423 24.5424 138.885 23.1895C142.346 21.8366 146.162 21.1602 150.348 21.1602C154.534 21.1602 158.447 21.8447 161.908 23.2137C165.37 24.5827 168.332 26.5315 170.795 29.0682C173.259 31.6048 175.134 34.6167 176.423 38.1116C177.711 41.6066 178.347 45.4559 178.347 49.6676V49.6757ZM164.267 49.6757C164.267 43.9581 163.011 39.5048 160.491 36.3158C157.972 33.1268 154.591 31.5404 150.34 31.5404C147.595 31.5404 145.18 32.2491 143.095 33.6744C141.002 35.0998 139.392 37.1936 138.265 39.9638C137.138 42.7421 136.566 45.9713 136.566 49.6757C136.566 53.38 137.122 56.5448 138.233 59.2828C139.343 62.0208 140.937 64.1227 143.014 65.5722C145.083 67.0298 147.531 67.7545 150.34 67.7545C154.591 67.7545 157.972 66.152 160.491 62.955C163.011 59.7499 164.267 55.3288 164.267 49.6757Z" fill="#A6A8AB"/>
<path d="M224.57 70.2831V68.4874C222.888 70.6133 221.125 72.393 219.281 73.8265C217.43 75.2679 215.409 76.339 213.22 77.0396C211.03 77.7402 208.526 78.0945 205.717 78.0945C202.328 78.0945 199.285 77.3939 196.596 75.9847C193.907 74.5834 191.822 72.6427 190.349 70.1785C188.602 67.1989 187.725 62.9147 187.725 57.334V29.5433C187.725 26.7328 188.361 24.639 189.624 23.2459C190.888 21.8608 192.571 21.1682 194.664 21.1682C196.757 21.1682 198.504 21.8688 199.8 23.2781C201.104 24.6793 201.756 26.7731 201.756 29.5433V51.9949C201.756 55.2483 202.03 57.9782 202.577 60.1928C203.125 62.3993 204.107 64.1307 205.532 65.3789C206.956 66.6271 208.881 67.2553 211.312 67.2553C213.743 67.2553 215.9 66.5546 217.993 65.1454C220.086 63.7442 221.608 61.9081 222.566 59.6452C223.355 57.6561 223.749 53.3075 223.749 46.5914V29.5352C223.749 26.757 224.401 24.6712 225.705 23.27C227.01 21.8688 228.7 21.1602 230.793 21.1602C232.886 21.1602 234.561 21.8527 235.832 23.2378C237.096 24.6229 237.732 26.7248 237.732 29.5352V70.1704C237.732 72.844 237.12 74.8411 235.905 76.1779C234.689 77.5147 233.12 78.1831 231.204 78.1831C229.288 78.1831 227.702 77.4905 226.446 76.1054C225.198 74.7203 224.57 72.7796 224.57 70.2751V70.2831Z" fill="#A6A8AB"/>
<path d="M263.389 29.0279V30.7271C266.029 27.4737 268.766 25.0819 271.608 23.5599C274.45 22.0379 277.67 21.2729 281.268 21.2729C285.583 21.2729 289.56 22.3842 293.19 24.6149C296.821 26.8455 299.695 30.0909 301.796 34.375C303.897 38.6592 304.96 43.7245 304.96 49.579C304.96 53.8954 304.348 57.8574 303.132 61.4732C301.917 65.089 300.242 68.1169 298.125 70.565C296 73.0131 293.488 74.8975 290.598 76.2182C287.7 77.5388 284.593 78.1992 281.268 78.1992C277.259 78.1992 273.894 77.3939 271.173 75.7833C268.452 74.1727 265.852 71.8132 263.389 68.6967V89.7632C263.389 95.9237 261.143 99.008 256.659 99.008C254.018 99.008 252.271 98.2108 251.418 96.6163C250.565 95.0218 250.13 92.7026 250.13 89.6585V29.1406C250.13 26.467 250.71 24.478 251.877 23.1573C253.044 21.8366 254.63 21.1763 256.659 21.1763C258.687 21.1763 260.265 21.8527 261.513 23.2056C262.761 24.5585 263.389 26.4993 263.389 29.0359V29.0279ZM290.88 49.426C290.88 45.7297 290.316 42.5488 289.181 39.8913C288.054 37.2338 286.485 35.1965 284.48 33.7791C282.476 32.3618 280.254 31.6451 277.823 31.6451C273.95 31.6451 270.69 33.1671 268.033 36.2192C265.377 39.2712 264.049 43.7567 264.049 49.6756C264.049 55.2563 265.369 59.5969 268.009 62.6973C270.65 65.7977 273.918 67.3438 277.823 67.3438C280.149 67.3438 282.306 66.6674 284.295 65.3145C286.283 63.9616 287.877 61.9322 289.077 59.2265C290.276 56.5207 290.872 53.2512 290.872 49.4179L290.88 49.426Z" fill="#A6A8AB"/>
</svg>
