<svg width="256" height="299" viewBox="0 0 256 299" fill="none" xmlns="http://www.w3.org/2000/svg">
<path d="M66.5667 118.741V261.914C66.5667 272.399 63.6445 281.177 57.792 288.255C51.9637 295.334 43.841 298.877 33.4402 298.877C23.0394 298.877 15.0455 295.334 9.00791 288.199C3.00248 281.072 0.0078125 272.319 0.0078125 261.914V34.4183C0.0078125 24.642 3.05078 16.4602 9.12866 9.87292C15.2065 3.30171 23.0233 0 32.5869 0C43.5432 0 52.817 4.92035 60.4002 14.7611L188.68 176.19V36.955C188.68 26.5425 191.642 17.7809 197.599 10.6621C203.557 3.56746 211.727 0 222.161 0C232.594 0 240.434 3.53524 246.343 10.6218C252.276 17.7004 255.223 26.4862 255.223 36.963V260.642C255.223 273.027 252.325 282.449 246.52 288.892C239.839 295.543 232.433 298.877 224.278 298.877C212.806 298.877 203.983 294.649 197.801 286.234L66.5667 118.741Z" fill="#EF5174"/>
</svg>
