<svg width="214" height="295" viewBox="0 0 214 295" fill="none" xmlns="http://www.w3.org/2000/svg">
<path d="M66.6306 172.625V257.914C66.6306 268.399 63.7165 277.177 57.856 284.255C52.0276 291.334 43.8889 294.877 33.4961 294.877C23.1034 294.877 15.0934 291.334 9.08799 284.199C3.05036 277.072 0.0556641 268.319 0.0556641 257.914V40.8066C0.0556641 28.2118 3.60579 18.3872 10.7221 11.3489C17.8385 4.29454 27.7644 0.775398 40.5159 0.775398H107.509C137.078 0.775398 161.011 8.32101 179.285 23.3881C188.76 31.3363 196.134 40.9596 201.358 52.2901C206.599 63.6206 209.232 75.4424 209.232 87.7473C209.232 113.96 201.688 134.414 186.61 149.143C176.701 158.637 161.47 165.74 140.958 170.491L197.543 232.612C206.116 241.897 211.164 249.716 212.733 256.086C213.289 259.629 213.579 262.11 213.579 263.535C213.579 271.532 210.874 278.755 205.416 285.198C199.966 291.648 193.558 294.861 186.192 294.861C171.106 294.861 159.972 290.078 152.751 280.535L66.6548 172.617L66.6306 172.625ZM66.6306 126.112H107.928C118.16 126.112 126.757 123.051 133.664 116.963C140.563 110.883 144.017 102.879 144.017 92.9575C144.017 83.0363 140.25 75.0317 132.715 68.4846C125.164 61.9376 116.445 58.652 106.543 58.652H66.6306V126.112Z" fill="#EF5174"/>
</svg>
