<svg width="209" height="84" viewBox="0 0 209 84" fill="none" xmlns="http://www.w3.org/2000/svg">
<path d="M33.1336 83.1151C22.8745 83.1151 12.5038 79.9928 3.80587 73.7481C1.91016 72.4099 0.572011 69.9567 0.572011 67.2804C0.572011 62.8199 4.14041 59.363 8.60091 59.363C10.8312 59.363 12.3923 60.1436 13.5075 60.9241C19.4176 65.2731 25.8853 67.9494 33.4682 67.9494C40.4935 67.9494 44.7309 65.1616 44.7309 60.5896V60.3666C44.7309 56.0176 42.0546 53.7873 29.0077 50.442C13.2844 46.4275 3.1368 42.0785 3.1368 26.5783V26.3553C3.1368 12.1932 14.5111 2.82615 30.4574 2.82615C39.9359 2.82615 48.1878 5.27943 55.2131 9.73993C57.1088 10.8551 59.0045 13.1968 59.0045 16.5422C59.0045 21.0027 55.4361 24.4596 50.9756 24.4596C49.303 24.4596 47.9648 24.0135 46.6267 23.2329C40.9395 19.8876 35.5869 17.9918 30.2343 17.9918C23.6551 17.9918 20.1982 21.0027 20.1982 24.7941V25.0171C20.1982 30.1467 23.5436 31.8194 37.0366 35.2763C52.8714 39.4022 61.7924 45.0894 61.7924 58.6939V58.9169C61.7924 74.4172 49.972 83.1151 33.1336 83.1151ZM74.6886 8.17875V7.95572C74.6886 3.04918 78.8146 0.0383412 84.1672 0.0383412C89.5198 0.0383412 93.6457 3.04918 93.6457 7.95572V8.17875C93.6457 13.0853 89.5198 16.2076 84.1672 16.2076C78.8146 16.2076 74.6886 13.0853 74.6886 8.17875ZM75.6922 74.1941V30.0352C75.6922 25.3517 79.4836 21.5602 84.1672 21.5602C88.8507 21.5602 92.6421 25.3517 92.6421 30.0352V74.1941C92.6421 78.8777 88.8507 82.6691 84.1672 82.6691C79.4836 82.6691 75.6922 78.8777 75.6922 74.1941ZM128.745 83.0036C118.374 83.0036 111.349 78.8777 111.349 65.0501V36.7259H110.792C106.777 36.7259 103.543 33.4921 103.543 29.4776C103.543 25.4632 106.777 22.2293 110.792 22.2293H111.349V14.758C111.349 10.0745 115.141 6.28304 119.824 6.28304C124.508 6.28304 128.299 10.0745 128.299 14.758V22.2293H135.77C139.785 22.2293 143.019 25.4632 143.019 29.4776C143.019 33.4921 139.785 36.7259 135.77 36.7259H128.299V62.2623C128.299 66.1652 129.972 68.0609 133.763 68.0609C134.321 68.0609 135.436 67.9494 135.77 67.9494C139.562 67.9494 142.796 71.0718 142.796 74.9747C142.796 77.9856 140.788 80.4388 138.447 81.3309C135.324 82.5576 132.425 83.0036 128.745 83.0036ZM166.926 47.4311H192.462C191.459 39.8483 186.998 34.7187 179.861 34.7187C172.836 34.7187 168.264 39.7368 166.926 47.4311ZM202.275 76.0898C197.034 80.5503 190.232 83.3381 181.534 83.3381C163.581 83.3381 150.311 70.7372 150.311 52.4492V52.2262C150.311 35.1648 162.465 21.1142 179.861 21.1142C199.822 21.1142 208.632 37.5065 208.632 49.8844C208.632 54.791 205.175 58.0248 200.714 58.0248H167.149C168.822 65.7192 174.174 69.7336 181.757 69.7336C186.441 69.7336 190.344 68.284 193.8 65.7192C195.027 64.8271 196.142 64.381 197.926 64.381C201.718 64.381 204.506 67.2804 204.506 71.0718C204.506 73.302 203.502 74.9747 202.275 76.0898Z" fill="#A6A8AB"/>
</svg>
