<svg width="253" height="302" viewBox="0 0 253 302" fill="none" xmlns="http://www.w3.org/2000/svg">
<path d="M252.329 37.3818V167.485C252.329 186.329 250.776 202.346 247.693 215.61C244.601 228.857 238.346 241.508 228.839 253.62C216.756 268.928 201.654 280.798 183.525 289.27C165.396 297.726 146.437 301.953 126.61 301.953C109.769 301.953 93.6685 299.111 78.2846 293.409C62.9168 287.7 49.4006 279.647 37.6876 269.242C25.9665 258.83 16.7732 246.332 10.0754 231.748C3.39379 217.172 0.0449219 201.404 0.0449219 184.501V37.3818C0.0449219 26.9774 3.03153 18.2077 9.02086 11.105C15.0021 3.97816 23.1972 0.418755 33.59 0.418755C43.9828 0.418755 51.9364 3.97816 57.7969 11.105C63.6816 18.2158 66.6279 26.9774 66.6279 37.3818V174.934C66.6279 193.48 71.2729 208.386 80.5306 219.636C85.8276 226.014 92.6622 230.942 101.01 234.462C109.358 237.965 117.755 239.72 126.175 239.72C135.175 239.72 143.926 237.723 152.467 233.769C160.96 229.807 167.891 224.242 173.116 217.091C181.536 206.043 185.763 189.51 185.763 167.493V37.3818C185.763 26.9774 188.717 18.2077 194.65 11.105C200.607 3.97816 208.681 0.418755 218.865 0.418755C229.048 0.418755 237.26 3.97816 243.273 11.105C249.311 18.2158 252.321 26.9774 252.321 37.3818H252.329Z" fill="#EF5174"/>
</svg>
