<svg width="128" height="128" viewBox="0 0 128 128" fill="none" xmlns="http://www.w3.org/2000/svg">
<mask id="mask0_538_44" style="mask-type:alpha" maskUnits="userSpaceOnUse" x="0" y="0" width="128" height="128">
<rect width="128" height="128" fill="#D9D9D9"/>
</mask>
<g mask="url(#mask0_538_44)">
<path d="M86.2246 43.2661L36.699 92.813C35.698 93.7999 34.5157 94.2915 33.1521 94.288C31.7885 94.2844 30.6133 93.7821 29.6265 92.7812C28.6255 91.7802 28.125 90.5961 28.125 89.229C28.125 87.8619 28.6255 86.6779 29.6265 85.6769L79.1415 36.1618H36.185C34.7486 36.1618 33.5442 35.6742 32.5719 34.6989C31.5996 33.7236 31.1134 32.5226 31.1134 31.0959C31.1134 29.6694 31.5996 28.4736 32.5719 27.5086C33.5442 26.5437 34.7486 26.0613 36.185 26.0613H91.2961C92.7183 26.0613 93.9156 26.5475 94.8879 27.5198C95.8602 28.4921 96.3463 29.6893 96.3463 31.1115V86.2227C96.3463 87.645 95.8587 88.8422 94.8834 89.8145C93.9081 90.7868 92.7071 91.273 91.2805 91.273C89.8397 91.273 88.6368 90.7868 87.6719 89.8145C86.707 88.8422 86.2246 87.645 86.2246 86.2227V43.2661Z" fill="white"/>
</g>
</svg>
